<mxfile host="app.diagrams.net" modified="2023-04-09T15:32:09.628Z" agent="Mozilla/5.0 (Windows NT 10.0; Win64; x64) AppleWebKit/537.36 (KHTML, like Gecko) Chrome/111.0.0.0 Safari/537.36" etag="vmPKv4NtLYtXpq40g_Xa" version="21.1.5" type="github">
  <diagram name="第 1 页" id="Cw9KLrcgQmQKyM1cp9cE">
    <mxGraphModel dx="1265" dy="747" grid="1" gridSize="10" guides="1" tooltips="1" connect="1" arrows="1" fold="1" page="1" pageScale="1" pageWidth="827" pageHeight="1169" math="0" shadow="0">
      <root>
        <mxCell id="0" />
        <mxCell id="1" parent="0" />
        <mxCell id="KmxW4om-7rgc6xRcMg8N-1" value="&lt;font style=&quot;font-size: 20px;&quot;&gt;在线学习平台&lt;/font&gt;" style="rounded=0;whiteSpace=wrap;html=1;strokeWidth=2;" vertex="1" parent="1">
          <mxGeometry x="330" y="170" width="140" height="40" as="geometry" />
        </mxCell>
        <mxCell id="KmxW4om-7rgc6xRcMg8N-6" value="" style="endArrow=none;html=1;rounded=0;strokeWidth=2;" edge="1" parent="1">
          <mxGeometry width="50" height="50" relative="1" as="geometry">
            <mxPoint x="400.5" y="240" as="sourcePoint" />
            <mxPoint x="400" y="210" as="targetPoint" />
          </mxGeometry>
        </mxCell>
        <mxCell id="KmxW4om-7rgc6xRcMg8N-7" value="" style="endArrow=none;html=1;rounded=0;strokeWidth=2;" edge="1" parent="1">
          <mxGeometry width="50" height="50" relative="1" as="geometry">
            <mxPoint x="280" y="240" as="sourcePoint" />
            <mxPoint x="520" y="240" as="targetPoint" />
          </mxGeometry>
        </mxCell>
        <mxCell id="KmxW4om-7rgc6xRcMg8N-8" value="" style="endArrow=none;html=1;rounded=0;strokeWidth=2;" edge="1" parent="1">
          <mxGeometry width="50" height="50" relative="1" as="geometry">
            <mxPoint x="279.5" y="280" as="sourcePoint" />
            <mxPoint x="279.5" y="240" as="targetPoint" />
            <Array as="points">
              <mxPoint x="279.5" y="270" />
              <mxPoint x="279.5" y="260" />
            </Array>
          </mxGeometry>
        </mxCell>
        <mxCell id="KmxW4om-7rgc6xRcMg8N-9" value="" style="endArrow=none;html=1;rounded=0;strokeWidth=2;" edge="1" parent="1">
          <mxGeometry width="50" height="50" relative="1" as="geometry">
            <mxPoint x="279.5" y="360" as="sourcePoint" />
            <mxPoint x="279.5" y="320" as="targetPoint" />
            <Array as="points">
              <mxPoint x="279.5" y="350" />
              <mxPoint x="279.5" y="340" />
            </Array>
          </mxGeometry>
        </mxCell>
        <mxCell id="KmxW4om-7rgc6xRcMg8N-10" value="&lt;font style=&quot;font-size: 20px;&quot;&gt;用户模块&lt;/font&gt;" style="rounded=0;whiteSpace=wrap;html=1;strokeWidth=2;" vertex="1" parent="1">
          <mxGeometry x="220" y="280" width="120" height="40" as="geometry" />
        </mxCell>
        <mxCell id="KmxW4om-7rgc6xRcMg8N-11" value="" style="endArrow=none;html=1;rounded=0;strokeWidth=2;" edge="1" parent="1">
          <mxGeometry width="50" height="50" relative="1" as="geometry">
            <mxPoint x="279.5" y="380" as="sourcePoint" />
            <mxPoint x="279.5" y="360" as="targetPoint" />
            <Array as="points">
              <mxPoint x="279.5" y="370" />
              <mxPoint x="279.5" y="360" />
            </Array>
          </mxGeometry>
        </mxCell>
        <mxCell id="KmxW4om-7rgc6xRcMg8N-12" value="" style="endArrow=none;html=1;rounded=0;strokeWidth=2;" edge="1" parent="1">
          <mxGeometry width="50" height="50" relative="1" as="geometry">
            <mxPoint x="200" y="360" as="sourcePoint" />
            <mxPoint x="360" y="360" as="targetPoint" />
          </mxGeometry>
        </mxCell>
        <mxCell id="KmxW4om-7rgc6xRcMg8N-15" value="&lt;font style=&quot;font-size: 20px;&quot;&gt;视频观看&lt;/font&gt;" style="rounded=0;whiteSpace=wrap;html=1;strokeWidth=2;" vertex="1" parent="1">
          <mxGeometry x="260" y="380" width="40" height="140" as="geometry" />
        </mxCell>
        <mxCell id="KmxW4om-7rgc6xRcMg8N-18" value="" style="endArrow=none;html=1;rounded=0;strokeWidth=2;" edge="1" parent="1">
          <mxGeometry width="50" height="50" relative="1" as="geometry">
            <mxPoint x="360" y="380" as="sourcePoint" />
            <mxPoint x="360" y="360" as="targetPoint" />
            <Array as="points">
              <mxPoint x="360" y="370" />
              <mxPoint x="360" y="360" />
            </Array>
          </mxGeometry>
        </mxCell>
        <mxCell id="KmxW4om-7rgc6xRcMg8N-19" value="" style="endArrow=none;html=1;rounded=0;strokeWidth=2;" edge="1" parent="1">
          <mxGeometry width="50" height="50" relative="1" as="geometry">
            <mxPoint x="200" y="380" as="sourcePoint" />
            <mxPoint x="200" y="360" as="targetPoint" />
            <Array as="points">
              <mxPoint x="200" y="370" />
              <mxPoint x="200" y="360" />
            </Array>
          </mxGeometry>
        </mxCell>
        <mxCell id="KmxW4om-7rgc6xRcMg8N-20" value="&lt;span style=&quot;font-size: 20px;&quot;&gt;购买课程&lt;/span&gt;" style="rounded=0;whiteSpace=wrap;html=1;strokeWidth=2;" vertex="1" parent="1">
          <mxGeometry x="340" y="380" width="40" height="140" as="geometry" />
        </mxCell>
        <mxCell id="KmxW4om-7rgc6xRcMg8N-21" value="&lt;font style=&quot;font-size: 20px;&quot;&gt;登陆注册&lt;/font&gt;" style="rounded=0;whiteSpace=wrap;html=1;strokeWidth=2;" vertex="1" parent="1">
          <mxGeometry x="180" y="380" width="40" height="140" as="geometry" />
        </mxCell>
        <mxCell id="KmxW4om-7rgc6xRcMg8N-22" value="" style="endArrow=none;html=1;rounded=0;strokeWidth=2;" edge="1" parent="1">
          <mxGeometry width="50" height="50" relative="1" as="geometry">
            <mxPoint x="519.5" y="280" as="sourcePoint" />
            <mxPoint x="519.5" y="240" as="targetPoint" />
            <Array as="points">
              <mxPoint x="519.5" y="270" />
              <mxPoint x="519.5" y="260" />
            </Array>
          </mxGeometry>
        </mxCell>
        <mxCell id="KmxW4om-7rgc6xRcMg8N-23" value="&lt;font style=&quot;font-size: 20px;&quot;&gt;用户模块&lt;/font&gt;" style="rounded=0;whiteSpace=wrap;html=1;strokeWidth=2;" vertex="1" parent="1">
          <mxGeometry x="460" y="280" width="120" height="40" as="geometry" />
        </mxCell>
        <mxCell id="KmxW4om-7rgc6xRcMg8N-24" value="" style="endArrow=none;html=1;rounded=0;strokeWidth=2;" edge="1" parent="1">
          <mxGeometry width="50" height="50" relative="1" as="geometry">
            <mxPoint x="519.5" y="380" as="sourcePoint" />
            <mxPoint x="519.5" y="360" as="targetPoint" />
            <Array as="points">
              <mxPoint x="519.5" y="370" />
              <mxPoint x="519.5" y="360" />
            </Array>
          </mxGeometry>
        </mxCell>
        <mxCell id="KmxW4om-7rgc6xRcMg8N-25" value="" style="endArrow=none;html=1;rounded=0;strokeWidth=2;" edge="1" parent="1">
          <mxGeometry width="50" height="50" relative="1" as="geometry">
            <mxPoint x="440" y="360" as="sourcePoint" />
            <mxPoint x="600" y="360" as="targetPoint" />
          </mxGeometry>
        </mxCell>
        <mxCell id="KmxW4om-7rgc6xRcMg8N-26" value="&lt;span style=&quot;font-size: 20px;&quot;&gt;讲师管理&lt;/span&gt;" style="rounded=0;whiteSpace=wrap;html=1;strokeWidth=2;" vertex="1" parent="1">
          <mxGeometry x="500" y="380" width="40" height="140" as="geometry" />
        </mxCell>
        <mxCell id="KmxW4om-7rgc6xRcMg8N-27" value="" style="endArrow=none;html=1;rounded=0;strokeWidth=2;" edge="1" parent="1">
          <mxGeometry width="50" height="50" relative="1" as="geometry">
            <mxPoint x="600" y="380" as="sourcePoint" />
            <mxPoint x="600" y="360" as="targetPoint" />
            <Array as="points">
              <mxPoint x="600" y="370" />
              <mxPoint x="600" y="360" />
            </Array>
          </mxGeometry>
        </mxCell>
        <mxCell id="KmxW4om-7rgc6xRcMg8N-28" value="" style="endArrow=none;html=1;rounded=0;strokeWidth=2;" edge="1" parent="1">
          <mxGeometry width="50" height="50" relative="1" as="geometry">
            <mxPoint x="440" y="380" as="sourcePoint" />
            <mxPoint x="440" y="360" as="targetPoint" />
            <Array as="points">
              <mxPoint x="440" y="370" />
              <mxPoint x="440" y="360" />
            </Array>
          </mxGeometry>
        </mxCell>
        <mxCell id="KmxW4om-7rgc6xRcMg8N-29" value="&lt;span style=&quot;font-size: 20px;&quot;&gt;课程管理&lt;/span&gt;" style="rounded=0;whiteSpace=wrap;html=1;strokeWidth=2;" vertex="1" parent="1">
          <mxGeometry x="580" y="380" width="40" height="140" as="geometry" />
        </mxCell>
        <mxCell id="KmxW4om-7rgc6xRcMg8N-30" value="&lt;font style=&quot;font-size: 20px;&quot;&gt;登录系统&lt;/font&gt;" style="rounded=0;whiteSpace=wrap;html=1;strokeWidth=2;" vertex="1" parent="1">
          <mxGeometry x="420" y="380" width="40" height="140" as="geometry" />
        </mxCell>
        <mxCell id="KmxW4om-7rgc6xRcMg8N-31" value="" style="endArrow=none;html=1;rounded=0;strokeWidth=2;" edge="1" parent="1">
          <mxGeometry width="50" height="50" relative="1" as="geometry">
            <mxPoint x="519.5" y="360" as="sourcePoint" />
            <mxPoint x="519.5" y="320" as="targetPoint" />
            <Array as="points">
              <mxPoint x="519.5" y="350" />
              <mxPoint x="519.5" y="340" />
            </Array>
          </mxGeometry>
        </mxCell>
      </root>
    </mxGraphModel>
  </diagram>
</mxfile>
